<svg xmlns="http://www.w3.org/2000/svg" width="960" height="640" viewBox="0 0 960 640" role="img" aria-labelledby="title desc">
  <title id="title">Интерфейс Telegram-бота для обучения</title>
  <desc id="desc">Макет уроков, прогресса и выдачи материалов.</desc>
  <defs>
    <linearGradient id="g" x1="0" x2="1" y1="0" y2="1">
      <stop offset="0" stop-color="#38BDF8"/>
      <stop offset="1" stop-color="#22C55E"/>
    </linearGradient>
  </defs>
  <rect width="960" height="640" fill="#0A0F1A"/>
  <rect x="112" y="86" width="736" height="468" rx="30" fill="#111827" stroke="#22C55E" stroke-opacity=".44"/>
  <rect x="150" y="132" width="300" height="372" rx="22" fill="#172033"/>
  <rect x="486" y="132" width="312" height="168" rx="22" fill="#172033"/>
  <rect x="486" y="332" width="312" height="172" rx="22" fill="#172033"/>
  <path d="M196 396 A112 112 0 1 1 368 398" fill="none" stroke="#0F172A" stroke-width="24" stroke-linecap="round"/>
  <path d="M196 396 A112 112 0 0 1 336 238" fill="none" stroke="url(#g)" stroke-width="24" stroke-linecap="round"/>
  <text x="242" y="348" fill="#F8FAFC" font-family="Arial, sans-serif" font-size="42" font-weight="700">68%</text>
  <rect x="524" y="170" width="174" height="14" rx="7" fill="#F8FAFC" opacity=".88"/>
  <rect x="524" y="206" width="238" height="10" rx="5" fill="#94A3B8"/>
  <rect x="524" y="238" width="190" height="10" rx="5" fill="#94A3B8"/>
  <g fill="#22C55E">
    <rect x="526" y="376" width="44" height="44" rx="12"/>
    <rect x="594" y="376" width="44" height="44" rx="12" opacity=".72"/>
    <rect x="662" y="376" width="44" height="44" rx="12" opacity=".44"/>
  </g>
  <rect x="526" y="456" width="182" height="18" rx="9" fill="url(#g)"/>
</svg>
