<svg xmlns="http://www.w3.org/2000/svg" width="960" height="640" viewBox="0 0 960 640" role="img" aria-labelledby="title desc">
  <title id="title">Интерфейс Telegram-бота для продаж</title>
  <desc id="desc">Темный макет панели с заказами, оплатами и графиком активности.</desc>
  <defs>
    <linearGradient id="g" x1="0" x2="1" y1="0" y2="1">
      <stop offset="0" stop-color="#38BDF8"/>
      <stop offset="1" stop-color="#22C55E"/>
    </linearGradient>
    <filter id="blur" x="-20%" y="-20%" width="140%" height="140%">
      <feGaussianBlur stdDeviation="18"/>
    </filter>
  </defs>
  <rect width="960" height="640" fill="#0A0F1A"/>
  <circle cx="760" cy="120" r="150" fill="#38BDF8" opacity=".18" filter="url(#blur)"/>
  <circle cx="220" cy="520" r="170" fill="#22C55E" opacity=".14" filter="url(#blur)"/>
  <rect x="96" y="74" width="768" height="492" rx="28" fill="#111827" stroke="url(#g)" stroke-opacity=".55"/>
  <rect x="126" y="112" width="190" height="416" rx="18" fill="#0F172A"/>
  <rect x="348" y="112" width="486" height="118" rx="18" fill="#172033"/>
  <rect x="348" y="254" width="230" height="274" rx="18" fill="#172033"/>
  <rect x="604" y="254" width="230" height="274" rx="18" fill="#172033"/>
  <circle cx="166" cy="154" r="18" fill="url(#g)"/>
  <rect x="194" y="142" width="102" height="12" rx="6" fill="#F8FAFC" opacity=".88"/>
  <rect x="194" y="164" width="70" height="9" rx="5" fill="#94A3B8"/>
  <g opacity=".78" fill="#94A3B8">
    <rect x="154" y="230" width="150" height="12" rx="6"/>
    <rect x="154" y="278" width="122" height="12" rx="6"/>
    <rect x="154" y="326" width="138" height="12" rx="6"/>
    <rect x="154" y="374" width="106" height="12" rx="6"/>
  </g>
  <rect x="382" y="146" width="132" height="14" rx="7" fill="#F8FAFC" opacity=".9"/>
  <rect x="382" y="178" width="292" height="10" rx="5" fill="#94A3B8"/>
  <rect x="650" y="150" width="126" height="42" rx="21" fill="url(#g)"/>
  <path d="M384 474 C428 392 459 430 493 355 C528 278 553 354 578 312" fill="none" stroke="#38BDF8" stroke-width="8" stroke-linecap="round"/>
  <g fill="#22C55E">
    <rect x="638" y="430" width="38" height="58" rx="8"/>
    <rect x="690" y="382" width="38" height="106" rx="8"/>
    <rect x="742" y="338" width="38" height="150" rx="8"/>
  </g>
</svg>
