<svg xmlns="http://www.w3.org/2000/svg" width="960" height="640" viewBox="0 0 960 640" role="img" aria-labelledby="title desc">
  <title id="title">Интерфейс Telegram-бота поддержки</title>
  <desc id="desc">Макет диалогов, очереди обращений и карточки пользователя.</desc>
  <defs>
    <linearGradient id="g" x1="0" x2="1" y1="0" y2="1">
      <stop offset="0" stop-color="#22C55E"/>
      <stop offset="1" stop-color="#38BDF8"/>
    </linearGradient>
  </defs>
  <rect width="960" height="640" fill="#0A0F1A"/>
  <rect x="82" y="68" width="776" height="504" rx="30" fill="#111827" stroke="#38BDF8" stroke-opacity=".42"/>
  <rect x="122" y="112" width="276" height="416" rx="20" fill="#0F172A"/>
  <rect x="428" y="112" width="390" height="416" rx="20" fill="#172033"/>
  <g fill="#94A3B8">
    <rect x="154" y="156" width="178" height="14" rx="7"/>
    <rect x="154" y="220" width="218" height="46" rx="12" opacity=".38"/>
    <rect x="154" y="292" width="218" height="46" rx="12" opacity=".38"/>
    <rect x="154" y="364" width="218" height="46" rx="12" opacity=".38"/>
  </g>
  <circle cx="478" cy="160" r="22" fill="url(#g)"/>
  <rect x="510" y="146" width="130" height="12" rx="6" fill="#F8FAFC" opacity=".88"/>
  <rect x="510" y="170" width="92" height="9" rx="5" fill="#94A3B8"/>
  <rect x="476" y="232" width="214" height="46" rx="18" fill="#0F172A"/>
  <rect x="548" y="304" width="222" height="54" rx="18" fill="url(#g)" opacity=".9"/>
  <rect x="476" y="386" width="250" height="46" rx="18" fill="#0F172A"/>
  <rect x="476" y="472" width="282" height="44" rx="22" fill="#0A0F1A" stroke="#38BDF8" stroke-opacity=".34"/>
</svg>
